<svg viewBox="568.0469 299.3452 380 216.3095" width="5000" height="2846.1776315789475" xmlns="http://www.w3.org/2000/svg" xmlns:xlink="http://www.w3.org/1999/xlink" preserveAspectRatio="none"><defs></defs><style>.companyName {fill:#5B4B42;fill-opacity:1;}.icon1 {fill:#B3D0D9;fill-opacity:1;}.icon2 {fill:#99A08E;fill-opacity:1;}.icon3 {fill:#DFC4B5;fill-opacity:1;}.icon3-str {stroke:#DFC4B5;stroke-opacity:1;}</style><g opacity="1" transform="rotate(0 643.554 299.3452)">
<svg width="228.9857" height="157.4275" x="643.554" y="299.3452" version="1.1" preserveAspectRatio="none" viewBox="19.999996185302734 45 160 110">
  <g transform="matrix(1 0 0 1 0 0)" ><g><path d="M104.451 55.665c0 2.772-2.243 5.019-5.009 5.019s-5.009-2.247-5.009-5.019a5.014 5.014 0 0 1 5.013-5.015 5.016 5.016 0 0 1 5.005 5.015z" data-color="1" class="icon1"></path><path d="M99.442 66.331c-5.878.001-10.644-4.774-10.644-10.664S93.562 45.001 99.44 45c5.878-.001 10.644 4.774 10.644 10.664v.001c-.007 5.887-4.767 10.658-10.642 10.666zm0-18.822c-4.495 0-8.139 3.652-8.139 8.156s3.644 8.156 8.139 8.156c4.495 0 8.139-3.652 8.139-8.156-.005-4.502-3.646-8.151-8.139-8.156z" data-color="2" class="icon2"></path><path d="M100.694 135.639h-2.505V71.977a1.253 1.253 0 0 1 2.506 0v63.662z" data-color="2" class="icon2"></path><path d="M108.926 144.334c0 5.197-4.204 9.41-9.391 9.41-5.186 0-9.391-4.213-9.391-9.41s4.204-9.41 9.391-9.41c5.187-.001 9.391 4.213 9.391 9.41z" data-color="3" class="icon3"></path><path d="M99.535 155c-5.879.001-10.645-4.774-10.645-10.665-.001-5.891 4.765-10.667 10.643-10.667 5.879-.001 10.645 4.774 10.645 10.665v.001c-.006 5.887-4.767 10.659-10.643 10.666zm0-18.821c-4.495-.001-8.14 3.651-8.14 8.155-.001 4.505 3.643 8.157 8.138 8.157 4.495.001 8.14-3.651 8.14-8.155v-.002c-.005-4.502-3.645-8.15-8.138-8.155z" data-color="2" class="icon2"></path><path d="M136.728 65.076c0 3.811-3.083 6.901-6.887 6.901-3.803 0-6.887-3.09-6.887-6.901s3.083-6.901 6.887-6.901c3.804-.001 6.887 3.089 6.887 6.901z" data-color="3" class="icon3"></path><path d="M129.842 73.235c-4.495 0-8.139-3.652-8.139-8.156 0-4.505 3.644-8.156 8.139-8.156 4.495 0 8.139 3.652 8.139 8.156-.005 4.502-3.646 8.151-8.139 8.156zm0-13.802a5.64 5.64 0 0 0-5.635 5.647 5.64 5.64 0 0 0 5.635 5.647 5.64 5.64 0 0 0 5.635-5.647v-.001a5.646 5.646 0 0 0-5.635-5.649v.003z" data-color="2" class="icon2"></path><path d="M131.094 73.505v51.823c0 .693-.561 1.255-1.253 1.255h.001a1.254 1.254 0 0 1-1.253-1.255V73.505c0-.693.561-1.255 1.253-1.255h-.001c.692 0 1.253.562 1.253 1.255z" data-color="2" class="icon2"></path><path d="M75.512 65.076c0 3.811-3.083 6.901-6.887 6.901-3.803 0-6.887-3.09-6.887-6.901s3.083-6.901 6.887-6.901c3.804-.001 6.887 3.089 6.887 6.901z" data-color="3" class="icon3"></path><path d="M68.626 73.235c-4.495 0-8.139-3.652-8.139-8.156s3.644-8.156 8.139-8.156c4.495 0 8.139 3.652 8.139 8.156-.005 4.502-3.646 8.151-8.139 8.156zm0-13.802a5.64 5.64 0 0 0-5.635 5.647 5.64 5.64 0 0 0 5.635 5.647 5.64 5.64 0 0 0 5.635-5.647v-.001a5.647 5.647 0 0 0-5.635-5.649v.003z" data-color="2" class="icon2"></path><path d="M69.878 73.505v51.823c0 .693-.561 1.255-1.253 1.255h.001a1.254 1.254 0 0 1-1.253-1.255V73.505c0-.693.561-1.255 1.253-1.255h-.001c.692 0 1.253.562 1.253 1.255z" data-color="2" class="icon2"></path><path d="M71.756 140.361a3.134 3.134 0 0 1-3.13 3.137 3.134 3.134 0 0 1-3.131-3.136v-.001a3.134 3.134 0 0 1 3.131-3.136 3.135 3.135 0 0 1 3.13 3.136z" data-color="3" class="icon3"></path><path d="M68.626 144.752a4.387 4.387 0 0 1-4.384-4.391 4.387 4.387 0 0 1 4.382-4.393 4.387 4.387 0 0 1 4.384 4.391v.002a4.393 4.393 0 0 1-4.382 4.391zm0-6.273a1.88 1.88 0 0 0-1.879 1.883 1.88 1.88 0 0 0 1.879 1.883 1.88 1.88 0 0 0 1.879-1.883 1.882 1.882 0 0 0-1.879-1.883z" data-color="2" class="icon2"></path><path d="M132.972 140.361a3.134 3.134 0 0 1-3.13 3.137 3.134 3.134 0 0 1-3.131-3.136v-.001a3.134 3.134 0 0 1 3.131-3.136 3.135 3.135 0 0 1 3.13 3.136z" data-color="3" class="icon3"></path><path d="M129.842 144.752a4.387 4.387 0 0 1-4.383-4.392c0-2.426 1.962-4.392 4.383-4.392s4.383 1.966 4.383 4.392v.001a4.394 4.394 0 0 1-4.383 4.391zm0-6.273a1.88 1.88 0 0 0-1.879 1.883 1.88 1.88 0 0 0 1.879 1.883 1.88 1.88 0 0 0 1.879-1.883 1.882 1.882 0 0 0-1.879-1.883z" data-color="2" class="icon2"></path><path d="M159.453 122.794c.002 2.772-2.238 5.021-5.005 5.024s-5.011-2.243-5.013-5.015v-.009a5.014 5.014 0 0 1 5.013-5.015 5.014 5.014 0 0 1 5.005 5.015z" data-color="3" class="icon3"></path><path d="M154.444 129.068c-3.458 0-6.261-2.809-6.261-6.275s2.803-6.275 6.262-6.274c3.458 0 6.261 2.809 6.261 6.275-.004 3.464-2.805 6.27-6.262 6.274zm0-10.038a3.76 3.76 0 0 0-3.756 3.764c0 2.079 1.682 3.764 3.756 3.764s3.756-1.685 3.756-3.764a3.765 3.765 0 0 0-3.757-3.767v.003z" data-color="2" class="icon2"></path><path d="M155.697 91.889v17.565c0 .693-.561 1.255-1.253 1.255h.001a1.254 1.254 0 0 1-1.253-1.255V91.889c0-.693.561-1.255 1.253-1.255h-.001c.692 0 1.253.562 1.253 1.255z" data-color="2" class="icon2"></path><path d="M157.574 80.76c0 1.732-1.401 3.137-3.13 3.137s-3.131-1.404-3.131-3.136v-.001a3.134 3.134 0 0 1 3.131-3.136 3.133 3.133 0 0 1 3.13 3.136z" data-color="3" class="icon3"></path><path d="M154.444 85.152a4.387 4.387 0 0 1-4.383-4.392 4.387 4.387 0 0 1 4.383-4.392 4.387 4.387 0 0 1 4.383 4.392 4.39 4.39 0 0 1-4.383 4.392zm0-6.274a1.88 1.88 0 0 0-1.879 1.883 1.88 1.88 0 0 0 1.879 1.883 1.883 1.883 0 1 0 0-3.766z" data-color="2" class="icon2"></path><path d="M44.394 91.889v17.565c0 .693-.561 1.255-1.253 1.255h.001a1.254 1.254 0 0 1-1.253-1.255V91.889c0-.693.561-1.255 1.253-1.255h-.001c.692 0 1.253.562 1.253 1.255z" data-color="2" class="icon2"></path><path d="M46.273 80.76a3.134 3.134 0 0 1-3.13 3.137 3.134 3.134 0 0 1-3.131-3.136v-.001a3.134 3.134 0 0 1 3.131-3.136 3.135 3.135 0 0 1 3.13 3.136z" data-color="3" class="icon3"></path><path d="M43.141 85.152a4.387 4.387 0 0 1-4.383-4.392 4.387 4.387 0 0 1 4.383-4.392 4.387 4.387 0 0 1 4.383 4.392 4.392 4.392 0 0 1-4.383 4.392zm0-6.274c-1.038 0-1.879.843-1.879 1.883s.841 1.883 1.879 1.883a1.883 1.883 0 1 0 0-3.766z" data-color="2" class="icon2"></path><path d="M178.744 100.209c0 1.732-1.401 3.137-3.13 3.137s-3.131-1.404-3.131-3.136v-.001a3.134 3.134 0 0 1 3.131-3.136 3.133 3.133 0 0 1 3.13 3.136z" data-color="3" class="icon3"></path><path d="M175.617 104.6a4.387 4.387 0 0 1-4.383-4.392 4.387 4.387 0 0 1 4.383-4.392 4.387 4.387 0 0 1 4.383 4.392v.001a4.392 4.392 0 0 1-4.383 4.391z" data-color="1" class="icon1"></path><path d="M27.513 100.209a3.134 3.134 0 0 1-3.13 3.137 3.134 3.134 0 0 1-3.131-3.136v-.001a3.134 3.134 0 0 1 3.131-3.136 3.133 3.133 0 0 1 3.13 3.136z" data-color="3" class="icon3"></path><path d="M24.383 104.6A4.387 4.387 0 0 1 20 100.208a4.387 4.387 0 0 1 4.383-4.392 4.387 4.387 0 0 1 4.383 4.392v.001a4.393 4.393 0 0 1-4.383 4.391z" data-color="1" class="icon1"></path><path d="M48.383 122.794c0 2.772-2.243 5.019-5.009 5.019s-5.009-2.247-5.009-5.019a5.014 5.014 0 0 1 5.009-5.019 5.014 5.014 0 0 1 5.009 5.019z" data-color="3" class="icon3"></path><path d="M43.374 129.068c-3.458-.002-6.26-2.813-6.257-6.279.002-3.465 2.808-6.273 6.266-6.27 3.457.002 6.257 2.811 6.257 6.275-.004 3.465-2.808 6.273-6.266 6.274zm0-10.038a3.76 3.76 0 0 0-3.756 3.764 3.76 3.76 0 0 0 3.756 3.764 3.76 3.76 0 0 0 3.756-3.764 3.765 3.765 0 0 0-3.756-3.767v.003z" data-color="2" class="icon2"></path><path d="M104.127 144.334c0 2.541-2.056 4.601-4.591 4.601s-4.591-2.06-4.591-4.601 2.056-4.601 4.591-4.601 4.591 2.06 4.591 4.601z" data-color="1" class="icon1"></path></g></g>
</svg>
</g><g opacity="1" transform="rotate(0 568.0469 489.485)">
<svg width="380" height="26.1697" x="568.0469" y="489.485" version="1.1" preserveAspectRatio="none" viewBox="2.4 -26.8 394.96000000000004 27.200000000000003">
  <g transform="matrix(1 0 0 1 0 0)" class="companyName"><path id="id-D6z1nYkh16" d="M13.08 0L2.40 0L2.40-0.64L5.64-2.24L5.64-24.16L2.40-25.76L2.40-26.40L13.08-26.40L13.08-25.76L9.84-24.16L9.84-2.24L13.08-0.64L13.08 0ZM22.24 0L9.84-13.48L20.88-24.40L18.04-25.76L18.04-26.40L26.68-26.40L26.68-25.76L24.16-24.76L13.92-14.72L26.24-1.72L28.76-0.64L28.76 0L22.24 0Z M41.24 0L31.84 0L31.84-0.64L34.48-1.96L34.48-20.44L31.84-21.76L31.84-22.40L41.24-22.40L41.24-21.76L38.48-20.44L38.48-1.96L41.24-0.64L41.24 0Z M55.68 0L46.20 0L46.20-0.64L49.12-1.96L49.12-20.44L46.20-21.76L46.20-22.40L55.88-22.40Q59.56-22.40 61.70-20.90Q63.84-19.40 63.84-16.76L63.84-16.76Q63.84-14.84 62.66-13.46Q61.48-12.08 59.28-11.28L59.28-11.28L65.44-1.88L68.08-0.64L68.08 0L61.80 0L55.48-10.20L53.04-10.20L53.04-2L55.68-0.64L55.68 0ZM54.92-20.44L54.92-20.44L53.04-20.44L53.04-12.16L55.08-12.16Q57.24-12.16 58.48-13.28Q59.72-14.40 59.72-16.32L59.72-16.32Q59.72-18.36 58.46-19.40Q57.20-20.44 54.92-20.44Z M82.52 0.40L82.52 0.40Q79.04 0.40 76.30-1.04Q73.56-2.48 72-5Q70.44-7.52 70.44-10.68L70.44-10.68Q70.44-13.36 71.46-15.58Q72.48-17.80 74.24-19.42Q76-21.04 78.28-21.94Q80.56-22.84 83.08-22.84L83.08-22.84Q84.80-22.84 86.02-22.62Q87.24-22.40 88.22-22Q89.20-21.60 90.16-21.16L90.16-21.16L90.32-15.44L89.68-15.44L87.36-19.48Q86.36-20.24 85.34-20.54Q84.32-20.84 83.08-20.84L83.08-20.84Q80.56-20.84 78.62-19.60Q76.68-18.36 75.58-16.20Q74.48-14.04 74.48-11.32L74.48-11.32Q74.48-6.64 76.82-4.12Q79.16-1.60 83.12-1.60L83.12-1.60Q84.36-1.60 85.32-1.78Q86.28-1.96 87.16-2.44L87.16-2.44L90.04-6.72L90.68-6.72L90.32-1.32Q88.88-0.56 87.02-0.08Q85.16 0.40 82.52 0.40Z M106.32 0L96.56 0L96.56-0.64L99.44-1.96L99.44-20.44L96.56-21.76L96.56-22.40L106.32-22.40L106.32-21.76L103.40-20.44L103.40-12.60L114.68-12.60L114.68-20.44L111.76-21.76L111.76-22.40L121.44-22.40L121.44-21.76L118.64-20.44L118.64-1.96L121.44-0.64L121.44 0L111.76 0L111.76-0.64L114.68-1.96L114.68-10.60L103.40-10.60L103.40-1.96L106.32-0.64L106.32 0Z M136.84 0L126.24 0L126.24-0.64L129.48-2.24L129.48-24.16L126.24-25.76L126.24-26.40L136.84-26.40L136.84-25.76L133.68-24.16L133.68-14.72L146.68-14.72L146.68-24.16L143.48-25.76L143.48-26.40L154.08-26.40L154.08-25.76L150.84-24.16L150.84-2.24L154.08-0.64L154.08 0L143.48 0L143.48-0.64L146.68-2.24L146.68-12.52L133.68-12.52L133.68-2.24L136.84-0.64L136.84 0Z M170.64 0.40L170.64 0.40Q167.28 0.40 164.68-1.10Q162.08-2.60 160.58-5.22Q159.08-7.84 159.08-11.20L159.08-11.20Q159.08-14.56 160.58-17.20Q162.08-19.84 164.68-21.34Q167.28-22.84 170.64-22.84L170.64-22.84Q174.00-22.84 176.62-21.34Q179.24-19.84 180.74-17.20Q182.24-14.56 182.24-11.20L182.24-11.20Q182.24-7.84 180.74-5.22Q179.24-2.60 176.62-1.10Q174.00 0.40 170.64 0.40ZM171.28-1.60L171.28-1.60Q174.52-1.60 176.36-3.96Q178.20-6.32 178.20-10.20L178.20-10.20Q178.20-13.36 177.18-15.76Q176.16-18.16 174.32-19.50Q172.48-20.84 170.12-20.84L170.12-20.84Q166.92-20.84 165.02-18.50Q163.12-16.16 163.12-12.32L163.12-12.32Q163.12-9.12 164.16-6.72Q165.20-4.32 167.04-2.96Q168.88-1.60 171.28-1.60Z M205.60 0L187.24 0L187.24-0.64L190.12-1.96L190.12-20.44L187.24-21.76L187.24-22.40L197.32-22.40L197.32-21.76L194.08-20.44L194.08-2L202.44-2L204.96-7.88L205.60-7.88L205.60 0Z M218.64 0L210.48 0L210.48-0.64L213.32-1.96L214.08-20.44L211.00-21.76L211.00-22.40L218.72-22.40L226.04-6L233.60-22.40L240.96-22.40L240.96-21.76L238.00-20.68L238.56-1.96L241.12-0.64L241.12 0L231.84 0L231.84-0.64L234.52-1.92L234.16-18.52L225.56 0.16L224.36 0.16L216.12-18.48L215.72-1.92L218.64-0.64L218.64 0Z M264.00 0.40L264.00 0.40Q261.48 0.40 259.70-0.08Q257.92-0.56 256.04-1.48L256.04-1.48L255.64-8.08L256.28-8.08L258.40-3.72Q259.80-2.56 261.16-2.04Q262.52-1.52 263.88-1.52L263.88-1.52Q266.20-1.52 267.54-2.72Q268.88-3.92 268.88-6L268.88-6Q268.88-7.64 268.14-8.62Q267.40-9.60 265.94-10.38Q264.48-11.16 262.36-12.20L262.36-12.20Q259.52-13.56 258.00-15.06Q256.48-16.56 256.48-19.28L256.48-19.28Q256.48-20.72 257.18-22.06Q257.88-23.40 259.08-24.46Q260.28-25.52 261.76-26.16Q263.24-26.80 264.84-26.80L264.84-26.80Q266.72-26.80 268.36-26.36Q270.00-25.92 271.60-25.08L271.60-25.08L272.00-18.68L271.36-18.68L269.28-22.96Q268.00-23.96 266.96-24.40Q265.92-24.84 264.60-24.84L264.60-24.84Q262.88-24.84 261.74-23.68Q260.60-22.52 260.60-20.76L260.60-20.76Q260.60-18.80 261.82-17.68Q263.04-16.56 265.76-15.28L265.76-15.28Q268.16-14.12 269.74-13.06Q271.32-12 272.08-10.68Q272.84-9.36 272.84-7.32L272.84-7.32Q272.84-5.44 272.04-4Q271.24-2.56 269.92-1.58Q268.60-0.60 267.06-0.10Q265.52 0.40 264.00 0.40Z M292.96 0L281.76 0L281.76-0.64L285.36-1.96L285.36-20.40L279.48-20.40L277.36-15.52L276.72-15.52L276.72-22.40L298.00-22.40L298.00-15.52L297.36-15.52L295.20-20.40L289.32-20.40L289.32-1.96L292.96-0.64L292.96 0Z M314.64 0.40L314.64 0.40Q311.88 0.40 309.70-0.50Q307.52-1.40 306.28-3.42Q305.04-5.44 305.04-8.76L305.04-8.76L305.04-20.44L302.12-21.76L302.12-22.40L311.92-22.40L311.92-21.76L309-20.44L309-8.96Q309-4.96 310.76-3.40Q312.52-1.84 315.48-1.84L315.48-1.84Q317.20-1.84 318.62-2.50Q320.04-3.16 320.88-4.54Q321.72-5.92 321.72-8.08L321.72-8.08L321.72-20.52L318.36-21.76L318.36-22.40L326.92-22.40L326.92-21.76L324.08-20.48L324.08-8.68Q324.08-5.44 322.88-3.44Q321.68-1.44 319.56-0.52Q317.44 0.40 314.64 0.40Z M341.68 0L331.72 0L331.72-0.64L334.64-1.96L334.64-20.44L331.72-21.76L331.72-22.40L341.92-22.40Q345.96-22.40 348.76-21.10Q351.56-19.80 353.04-17.50Q354.52-15.20 354.52-12.20L354.52-12.20Q354.52-8.52 352.96-5.78Q351.40-3.04 348.52-1.52Q345.64 0 341.68 0L341.68 0ZM341.08-20.40L341.08-20.40L338.60-20.40L338.60-2L341.36-2Q345.72-2 348.06-4.54Q350.40-7.08 350.40-11.32L350.40-11.32Q350.40-15.72 348.00-18.06Q345.60-20.40 341.08-20.40Z M369.04 0L359.64 0L359.64-0.64L362.28-1.96L362.28-20.44L359.64-21.76L359.64-22.40L369.04-22.40L369.04-21.76L366.28-20.44L366.28-1.96L369.04-0.64L369.04 0Z M385.76 0.40L385.76 0.40Q382.40 0.40 379.80-1.10Q377.20-2.60 375.70-5.22Q374.20-7.84 374.20-11.20L374.20-11.20Q374.20-14.56 375.70-17.20Q377.20-19.84 379.80-21.34Q382.40-22.84 385.76-22.84L385.76-22.84Q389.12-22.84 391.74-21.34Q394.36-19.84 395.86-17.20Q397.36-14.56 397.36-11.20L397.36-11.20Q397.36-7.84 395.86-5.22Q394.36-2.60 391.74-1.10Q389.12 0.40 385.76 0.40ZM386.40-1.60L386.40-1.60Q389.64-1.60 391.48-3.96Q393.32-6.32 393.32-10.20L393.32-10.20Q393.32-13.36 392.30-15.76Q391.28-18.16 389.44-19.50Q387.60-20.84 385.24-20.84L385.24-20.84Q382.04-20.84 380.14-18.50Q378.24-16.16 378.24-12.32L378.24-12.32Q378.24-9.12 379.28-6.72Q380.32-4.32 382.16-2.96Q384-1.60 386.40-1.60Z"/></g>
</svg>
</g></svg>